<svg width="36" height="36" viewBox="0 0 36 36" fill="none" xmlns="http://www.w3.org/2000/svg">
<path d="M31.26 6.91505C30.4939 6.14856 29.5842 5.54052 28.583 5.12568C27.5818 4.71084 26.5087 4.49731 25.425 4.49731C24.3413 4.49731 23.2682 4.71084 22.267 5.12568C21.2658 5.54052 20.3561 6.14856 19.59 6.91505L18 8.50505L16.41 6.91505C14.8625 5.36751 12.7635 4.49812 10.575 4.49812C8.38645 4.49812 6.28753 5.36751 4.74 6.91505C3.19246 8.46259 2.32306 10.5615 2.32306 12.7501C2.32306 14.9386 3.19246 17.0375 4.74 18.5851L6.32999 20.1751L18 31.8451L29.67 20.1751L31.26 18.5851C32.0265 17.8189 32.6345 16.9093 33.0494 15.9081C33.4642 14.9069 33.6777 13.8338 33.6777 12.7501C33.6777 11.6663 33.4642 10.5932 33.0494 9.59202C32.6345 8.59083 32.0265 7.68119 31.26 6.91505Z" stroke="#232323" stroke-width="2" stroke-linecap="round" stroke-linejoin="round"/>
</svg>
