<svg width="300" height="300" viewBox="0 0 300 300" fill="none" xmlns="http://www.w3.org/2000/svg">
<rect x="50" y="50" width="200" height="200" rx="70" fill="#FF5454"/>
<rect width="300" height="300" rx="70" fill="#632FBD"/>
<rect width="300" height="300" rx="70" fill="url(#paint0_linear_22_164)"/>
<path d="M130.4 224C118 224 106 224 94 224V84C106 84 118 84 130.4 84V137H133C168.8 137 167 110.2 167 84C179.2 84 191.4 84 203.8 84C203.8 112.6 204.6 139 176.8 156.8L214.8 218.4V224H175L144.2 169.8C139.4 170.6 135 170.6 130.4 170.6V224Z" fill="white"/>
<circle cx="185.5" cy="100.5" r="8.5" fill="#D9D9D9"/>
<circle cx="185.5" cy="100.5" r="8.5" fill="#FF5454"/>
<circle cx="185.5" cy="100.5" r="8.5" fill="url(#paint1_linear_22_164)"/>
<defs>
<linearGradient id="paint0_linear_22_164" x1="150" y1="0" x2="150" y2="300" gradientUnits="userSpaceOnUse">
<stop stop-color="#9558FF"/>
<stop offset="1" stop-color="#7E34FE"/>
</linearGradient>
<linearGradient id="paint1_linear_22_164" x1="185.5" y1="92" x2="185.5" y2="109" gradientUnits="userSpaceOnUse">
<stop stop-color="#9558FF"/>
<stop offset="1" stop-color="#7E34FE"/>
</linearGradient>
</defs>
</svg>
