<svg width="38" height="38" viewBox="0 0 38 38" fill="none" xmlns="http://www.w3.org/2000/svg">
<path d="M9.5 3.16667L4.75 9.5V31.6667C4.75 32.5065 5.08363 33.312 5.6775 33.9058C6.27136 34.4997 7.07681 34.8333 7.91667 34.8333H30.0833C30.9232 34.8333 31.7286 34.4997 32.3225 33.9058C32.9164 33.312 33.25 32.5065 33.25 31.6667V9.5L28.5 3.16667H9.5Z" stroke="#232323" stroke-width="3" stroke-linecap="round" stroke-linejoin="round"/>
<path d="M4.75 9.5H33.25" stroke="#232323" stroke-width="3" stroke-linecap="round" stroke-linejoin="round"/>
<path d="M25.3334 15.8333C25.3334 17.513 24.6662 19.1239 23.4784 20.3117C22.2907 21.4994 20.6798 22.1667 19.0001 22.1667C17.3204 22.1667 15.7095 21.4994 14.5217 20.3117C13.334 19.1239 12.6667 17.513 12.6667 15.8333" stroke="#232323" stroke-width="3" stroke-linecap="round" stroke-linejoin="round"/>
</svg>
